<svg xmlns="http://www.w3.org/2000/svg" width="176" height="26" viewBox="0 0 176 26" role="img" aria-label="Midnight Korea logo">
  <path fill="#000000" fill-rule="evenodd" d="M 11.355 11.742 L 11.355 11.952 L 11.253 12.056 L 11.355 12.161 L 11.355 14.048 L 11.456 14.153 L 13.585 14.153 L 13.687 14.048 L 13.687 11.847 L 13.585 11.742 L 11.760 11.742 L 11.659 11.637 L 11.558 11.742 Z M 167.078 9.540 L 166.673 9.960 L 166.571 10.274 L 166.267 10.589 L 166.166 10.903 L 165.963 11.113 L 165.862 11.532 L 165.760 11.637 L 165.760 11.847 L 165.659 11.952 L 165.659 12.161 L 165.558 12.266 L 165.558 12.476 L 165.456 12.581 L 165.456 14.677 L 165.558 14.782 L 165.558 15.202 L 165.760 15.411 L 165.760 15.621 L 165.862 15.726 L 165.862 16.145 L 166.065 16.355 L 166.065 16.460 L 166.267 16.669 L 166.369 16.984 L 166.673 17.298 L 166.673 17.403 L 167.180 17.927 L 167.281 17.927 L 167.585 18.242 L 167.889 18.347 L 168.396 18.766 L 168.700 18.766 L 168.802 18.871 L 169.005 18.871 L 169.410 19.081 L 169.714 19.081 L 169.816 19.185 L 171.134 19.185 L 171.235 19.081 L 171.539 19.081 L 171.641 18.976 L 171.843 18.976 L 172.249 18.766 L 172.553 18.766 L 172.857 18.452 L 173.161 18.347 L 173.770 17.718 L 173.972 17.613 L 174.175 17.718 L 174.175 18.661 L 174.378 18.871 L 175.493 18.871 L 175.696 18.661 L 175.696 8.702 L 175.594 8.492 L 175.392 8.387 L 174.479 8.387 L 174.175 8.702 L 174.175 9.645 L 174.074 9.750 L 173.770 9.645 L 172.857 8.806 L 172.452 8.597 L 172.249 8.597 L 172.046 8.387 L 171.641 8.387 L 171.539 8.282 L 170.829 8.282 L 170.728 8.177 L 170.120 8.177 L 170.018 8.282 L 169.512 8.282 L 169.410 8.387 L 168.802 8.387 L 168.599 8.597 L 167.889 8.911 L 167.585 9.226 L 167.484 9.226 L 167.180 9.540 Z M 170.120 9.645 L 171.438 9.645 L 172.857 10.379 L 173.567 11.113 L 173.567 11.323 L 173.770 11.532 L 173.972 11.952 L 173.972 12.266 L 174.175 12.581 L 174.175 12.895 L 174.276 13.000 L 174.276 14.363 L 174.175 14.468 L 174.175 14.782 L 174.074 14.887 L 173.871 15.726 L 173.668 15.935 L 173.465 16.355 L 173.060 16.774 L 172.959 16.774 L 172.857 16.984 L 171.641 17.613 L 169.816 17.613 L 169.714 17.508 L 169.309 17.403 L 169.106 17.194 L 168.700 17.089 L 167.889 16.355 L 167.889 16.250 L 167.382 15.621 L 167.382 15.411 L 167.078 14.887 L 167.078 14.363 L 166.977 14.258 L 166.977 13.105 L 167.078 13.000 L 167.078 12.476 L 167.585 11.427 L 167.788 11.218 L 167.788 11.113 L 168.903 10.065 L 169.512 9.960 Z M 159.069 8.177 L 158.968 8.282 L 158.359 8.282 L 158.258 8.387 L 157.853 8.387 L 156.737 8.911 L 156.535 9.121 L 156.129 9.331 L 155.318 10.169 L 155.217 10.484 L 154.912 10.798 L 154.710 11.323 L 154.507 11.532 L 154.507 12.056 L 154.406 12.161 L 154.304 13.000 L 154.203 13.105 L 154.203 14.258 L 154.304 14.363 L 154.304 14.677 L 154.406 14.782 L 154.507 15.726 L 154.710 15.935 L 155.014 16.669 L 155.318 16.984 L 155.318 17.089 L 155.724 17.613 L 155.825 17.613 L 156.129 17.927 L 156.230 17.927 L 156.636 18.347 L 157.143 18.556 L 157.346 18.766 L 158.055 18.871 L 158.157 18.976 L 158.765 19.081 L 158.866 19.185 L 160.184 19.185 L 160.286 19.081 L 160.793 19.081 L 160.894 18.976 L 161.097 18.976 L 161.502 18.766 L 161.806 18.766 L 162.009 18.556 L 162.516 18.347 L 163.429 17.508 L 163.429 17.089 L 162.820 16.460 L 162.516 16.460 L 162.313 16.565 L 161.806 17.089 L 161.401 17.298 L 161.198 17.298 L 160.995 17.508 L 160.793 17.508 L 160.691 17.613 L 158.562 17.613 L 158.461 17.508 L 158.055 17.403 L 157.853 17.194 L 157.447 17.089 L 156.636 16.355 L 156.636 16.250 L 156.332 15.935 L 156.332 15.831 L 156.028 15.411 L 156.028 15.097 L 155.926 14.992 L 155.825 14.468 L 156.028 14.258 L 163.935 14.258 L 164.138 14.153 L 164.240 12.895 L 164.138 12.790 L 164.138 11.952 L 164.037 11.847 L 164.037 11.532 L 163.834 11.323 L 163.733 10.798 L 163.530 10.589 L 163.429 10.274 L 162.820 9.540 L 162.719 9.540 L 161.908 8.806 L 161.502 8.597 L 161.300 8.597 L 161.097 8.387 L 160.691 8.387 L 160.590 8.282 L 159.880 8.282 L 159.779 8.177 Z M 155.825 12.685 L 155.926 12.266 L 156.028 12.161 L 156.028 11.847 L 156.433 11.113 L 157.244 10.274 L 157.346 10.274 L 157.548 10.065 L 157.954 9.960 L 158.055 9.855 L 158.258 9.855 L 158.359 9.750 L 158.664 9.750 L 158.765 9.645 L 160.083 9.645 L 160.184 9.750 L 160.387 9.750 L 160.488 9.855 L 160.691 9.855 L 160.793 9.960 L 161.198 10.065 L 161.604 10.484 L 161.705 10.484 L 162.212 11.113 L 162.212 11.323 L 162.415 11.532 L 162.618 11.952 L 162.618 12.476 L 162.719 12.581 L 162.415 12.895 L 156.028 12.895 Z M 153.392 8.702 L 152.783 8.387 L 152.479 8.387 L 152.378 8.282 L 151.972 8.282 L 151.871 8.177 L 151.161 8.177 L 151.060 8.282 L 150.147 8.387 L 149.945 8.597 L 149.539 8.806 L 149.032 9.331 L 148.829 9.331 L 148.627 9.121 L 148.627 8.597 L 148.323 8.387 L 147.309 8.387 L 147.106 8.702 L 147.106 18.661 L 147.309 18.871 L 148.424 18.871 L 148.627 18.661 L 148.627 12.581 L 148.728 12.476 L 148.728 11.637 L 148.829 11.532 L 148.931 11.113 L 149.134 10.903 L 149.134 10.694 L 149.843 10.065 L 150.249 9.960 L 150.756 9.645 L 151.871 9.645 L 152.276 9.960 L 152.581 9.960 L 152.986 10.379 L 153.290 10.274 L 153.290 10.169 L 154.000 9.435 L 154.000 9.331 Z M 139.401 8.177 L 139.300 8.282 L 138.691 8.282 L 138.590 8.387 L 138.286 8.387 L 137.779 8.702 L 137.576 8.702 L 137.171 8.911 L 136.461 9.540 L 136.359 9.540 L 135.447 10.589 L 135.346 10.903 L 135.041 11.323 L 134.940 11.847 L 134.636 12.476 L 134.636 14.677 L 134.737 14.782 L 134.737 15.097 L 135.041 15.726 L 135.041 16.040 L 135.447 16.565 L 135.548 16.879 L 135.954 17.298 L 135.954 17.403 L 136.866 18.242 L 137.171 18.347 L 137.677 18.766 L 138.387 18.871 L 138.488 18.976 L 138.691 18.976 L 139.097 19.185 L 140.516 19.185 L 140.618 19.081 L 141.023 19.081 L 141.124 18.976 L 141.327 18.976 L 141.733 18.766 L 142.037 18.766 L 142.240 18.556 L 142.341 18.556 L 142.544 18.347 L 142.848 18.242 L 143.152 17.927 L 143.253 17.927 L 144.267 16.774 L 144.369 16.460 L 144.673 16.040 L 144.774 15.516 L 144.977 15.306 L 144.977 15.097 L 145.078 14.992 L 145.078 12.371 L 144.977 12.266 L 144.977 11.952 L 144.774 11.742 L 144.673 11.218 L 144.470 11.008 L 144.369 10.694 L 143.862 10.065 L 143.862 9.960 L 143.051 9.226 L 142.949 9.226 L 142.442 8.806 L 141.834 8.492 L 141.631 8.492 L 141.530 8.387 L 141.124 8.387 L 141.023 8.282 L 140.212 8.282 L 140.111 8.177 Z M 139.502 9.645 L 140.415 9.645 L 141.023 9.960 L 141.327 9.960 L 142.037 10.379 L 143.152 11.637 L 143.152 11.847 L 143.355 12.056 L 143.355 12.266 L 143.558 12.685 L 143.558 14.573 L 143.152 15.411 L 143.051 15.831 L 142.138 16.879 L 140.719 17.613 L 139.097 17.613 L 138.286 17.194 L 137.880 17.089 L 137.069 16.355 L 136.866 15.935 L 136.562 15.621 L 136.562 15.411 L 136.258 14.782 L 136.258 14.363 L 136.157 14.258 L 136.157 13.105 L 136.258 13.000 L 136.258 12.476 L 136.562 11.952 L 136.562 11.742 L 136.765 11.532 L 136.968 11.113 L 137.677 10.379 L 137.982 10.274 L 138.184 10.065 L 138.387 9.960 L 138.691 9.960 L 138.995 9.750 L 139.401 9.750 Z M 11.456 7.863 L 11.253 8.282 L 11.355 8.387 L 11.355 10.169 L 11.659 10.379 L 11.760 10.274 L 13.585 10.274 L 13.687 10.065 L 13.687 8.073 L 13.484 7.863 Z M 79.585 7.444 L 79.281 7.653 L 79.281 18.766 L 79.687 19.081 L 81.917 19.081 L 82.221 18.871 L 82.221 7.653 L 82.018 7.444 Z M 50.590 7.444 L 50.286 7.653 L 50.286 18.661 L 50.387 18.871 L 50.691 19.081 L 52.922 19.081 L 53.124 18.976 L 53.327 18.661 L 53.327 7.758 L 53.226 7.548 L 53.023 7.548 L 52.922 7.444 Z M 94.691 7.444 L 92.157 7.444 L 91.954 7.653 L 91.954 8.177 L 91.751 8.282 L 91.447 7.968 L 90.940 7.758 L 90.737 7.548 L 90.028 7.444 L 89.622 7.234 L 87.899 7.234 L 87.797 7.339 L 87.493 7.339 L 87.392 7.444 L 86.682 7.548 L 86.479 7.758 L 85.770 8.073 L 85.465 8.387 L 85.364 8.387 L 84.350 9.540 L 84.147 10.065 L 83.945 10.274 L 83.843 10.798 L 83.641 11.008 L 83.641 11.218 L 83.539 11.323 L 83.539 12.161 L 83.438 12.266 L 83.438 13.734 L 83.539 13.839 L 83.539 14.468 L 83.641 14.573 L 83.641 14.782 L 83.742 14.887 L 83.945 15.726 L 84.350 16.250 L 84.452 16.565 L 84.959 17.089 L 84.959 17.194 L 85.263 17.508 L 85.567 17.613 L 85.871 17.927 L 86.378 18.137 L 86.581 18.347 L 87.189 18.452 L 87.797 18.766 L 89.521 18.766 L 89.622 18.661 L 89.926 18.661 L 90.028 18.556 L 90.839 18.347 L 91.143 18.032 L 91.346 18.032 L 91.650 17.718 L 91.853 17.718 L 91.954 17.823 L 91.954 19.081 L 91.853 19.185 L 91.853 19.395 L 91.650 19.710 L 91.548 20.129 L 91.143 20.548 L 91.041 20.548 L 90.940 20.758 L 89.926 21.282 L 89.318 21.282 L 89.217 21.387 L 88.304 21.387 L 88.203 21.282 L 87.696 21.282 L 87.594 21.177 L 87.392 21.177 L 87.088 20.968 L 86.682 20.863 L 86.378 20.548 L 86.175 20.548 L 85.567 19.919 L 85.263 19.815 L 83.641 21.492 L 83.641 21.806 L 83.742 22.016 L 84.452 22.750 L 84.553 22.750 L 85.364 23.379 L 85.567 23.379 L 85.972 23.589 L 86.175 23.798 L 86.581 23.798 L 86.682 23.903 L 86.986 23.903 L 87.088 24.008 L 87.392 24.008 L 87.493 24.113 L 88.000 24.113 L 88.101 24.218 L 89.521 24.218 L 89.622 24.113 L 90.028 24.113 L 90.129 24.008 L 90.433 24.008 L 90.535 23.903 L 91.447 23.798 L 91.650 23.589 L 92.866 22.960 L 93.880 21.911 L 93.982 21.597 L 94.387 21.073 L 94.488 20.548 L 94.793 19.919 L 94.793 19.185 L 94.894 19.081 L 94.894 7.653 Z M 88.811 9.960 L 89.622 9.960 L 89.724 10.065 L 90.129 10.065 L 90.230 10.169 L 90.433 10.169 L 90.636 10.379 L 91.041 10.484 L 91.548 11.008 L 91.650 11.323 L 91.853 11.532 L 92.055 11.952 L 92.055 13.839 L 91.954 13.944 L 91.954 14.258 L 91.853 14.468 L 91.650 14.677 L 91.650 14.782 L 90.940 15.516 L 90.737 15.516 L 90.535 15.726 L 90.129 15.831 L 90.028 15.935 L 88.608 15.935 L 88.507 15.831 L 88.304 15.831 L 87.696 15.516 L 87.290 15.202 L 87.290 15.097 L 86.682 14.363 L 86.682 14.048 L 86.479 13.629 L 86.479 13.105 L 86.378 12.895 L 86.479 12.790 L 86.479 12.266 L 86.581 12.161 L 86.581 11.952 L 86.682 11.847 L 86.783 11.427 L 87.493 10.589 L 87.594 10.589 L 87.797 10.379 L 88.000 10.379 L 88.406 10.065 L 88.710 10.065 Z M 76.037 7.968 L 75.733 7.863 L 75.327 7.548 L 75.124 7.548 L 75.023 7.444 L 74.820 7.444 L 74.415 7.234 L 72.793 7.234 L 72.387 7.444 L 71.982 7.444 L 71.171 7.863 L 70.664 8.282 L 70.461 8.282 L 70.359 8.177 L 70.359 7.758 L 70.258 7.548 L 70.055 7.548 L 69.954 7.444 L 67.622 7.444 L 67.318 7.653 L 67.318 18.661 L 67.521 18.976 L 67.724 19.081 L 69.954 19.081 L 70.258 18.871 L 70.359 18.661 L 70.359 11.952 L 70.461 11.847 L 70.461 11.427 L 70.866 10.903 L 70.866 10.798 L 71.272 10.379 L 72.083 9.960 L 73.097 9.960 L 73.198 10.065 L 73.401 10.065 L 74.009 10.379 L 74.516 10.903 L 74.719 11.427 L 74.922 11.637 L 74.922 12.056 L 75.023 12.161 L 75.023 18.871 L 75.226 19.081 L 77.558 19.081 L 77.862 18.871 L 77.862 10.903 L 77.760 10.798 L 77.760 10.274 L 77.558 10.065 L 77.558 9.855 L 77.253 9.226 Z M 31.327 7.653 L 31.226 7.863 L 31.327 7.968 L 31.327 18.766 L 31.429 18.976 L 31.631 18.976 L 31.733 19.081 L 33.862 19.081 L 33.963 18.976 L 34.166 18.976 L 34.267 18.766 L 34.267 12.056 L 34.369 11.952 L 34.369 11.427 L 34.774 10.694 L 35.078 10.379 L 35.281 10.379 L 35.484 10.169 L 35.889 9.960 L 37.005 9.960 L 37.106 10.065 L 37.309 10.065 L 37.714 10.379 L 37.816 10.379 L 38.424 11.008 L 38.525 11.218 L 38.525 11.532 L 38.627 11.637 L 38.627 18.661 L 38.829 18.976 L 39.032 19.081 L 41.263 19.081 L 41.567 18.871 L 41.668 18.661 L 41.668 11.427 L 41.871 11.008 L 42.276 10.484 L 43.290 9.960 L 44.304 9.960 L 44.406 10.065 L 44.608 10.065 L 45.014 10.379 L 45.115 10.379 L 45.825 11.113 L 45.825 11.532 L 45.926 11.637 L 45.926 18.661 L 46.028 18.871 L 46.332 19.081 L 48.664 19.081 L 48.968 18.871 L 48.968 10.798 L 48.866 10.694 L 48.866 10.379 L 48.664 10.065 L 48.562 9.540 L 48.359 9.331 L 48.258 9.016 L 47.244 7.968 L 46.737 7.758 L 46.535 7.548 L 45.825 7.444 L 45.419 7.234 L 43.696 7.234 L 43.290 7.444 L 42.682 7.548 L 42.074 7.863 L 41.871 8.073 L 41.770 8.073 L 41.060 8.806 L 40.756 8.806 L 39.945 7.968 L 39.641 7.863 L 39.235 7.548 L 38.627 7.444 L 38.221 7.234 L 36.498 7.234 L 36.396 7.339 L 36.194 7.339 L 35.788 7.548 L 35.484 7.548 L 35.281 7.758 L 34.571 8.177 L 34.369 8.073 L 34.267 7.653 L 33.963 7.444 L 31.631 7.444 Z M 11.456 4.089 L 11.355 4.194 L 11.355 6.290 L 11.558 6.500 L 13.382 6.500 L 13.687 6.290 L 13.687 4.194 L 13.585 4.089 Z M 123.281 3.565 L 122.977 3.984 L 122.977 18.556 L 123.180 18.871 L 124.396 18.871 L 124.599 18.661 L 124.599 11.637 L 124.802 11.532 L 125.207 11.742 L 125.309 11.952 L 125.917 12.581 L 126.018 12.581 L 127.235 13.839 L 127.336 13.839 L 129.770 16.355 L 129.871 16.355 L 130.175 16.774 L 130.276 16.774 L 130.682 17.194 L 130.783 17.194 L 130.986 17.403 L 130.986 17.508 L 131.189 17.613 L 131.290 17.823 L 131.493 18.032 L 131.594 18.032 L 132.406 18.871 L 134.230 18.871 L 134.230 18.556 L 134.028 18.347 L 133.926 18.347 L 133.622 17.927 L 133.521 17.927 L 130.682 14.992 L 130.581 14.992 L 129.668 14.048 L 129.567 14.048 L 127.235 11.637 L 127.134 11.637 L 126.525 11.008 L 126.627 10.694 L 127.134 10.169 L 127.235 10.169 L 127.742 9.645 L 127.843 9.645 L 129.060 8.387 L 129.161 8.387 L 129.972 7.548 L 130.074 7.548 L 130.581 7.024 L 130.682 7.024 L 130.783 6.815 L 130.885 6.815 L 131.392 6.290 L 131.493 6.290 L 133.521 4.298 L 133.926 4.089 L 134.028 3.669 L 133.926 3.565 L 132.304 3.565 L 132.101 3.669 L 131.696 4.089 L 131.594 4.089 L 130.378 5.347 L 130.276 5.347 L 129.465 6.185 L 129.364 6.185 L 128.553 7.024 L 128.452 7.024 L 128.046 7.444 L 127.945 7.444 L 126.627 8.806 L 126.525 8.806 L 126.525 8.911 L 126.323 9.121 L 126.221 9.121 L 125.816 9.540 L 125.714 9.540 L 125.005 10.274 L 124.700 10.274 L 124.599 10.169 L 124.599 3.879 L 124.498 3.669 L 124.295 3.565 Z M 110.406 2.621 L 110.203 2.935 L 110.203 7.234 L 110.000 7.444 L 107.871 7.444 L 107.668 7.548 L 107.465 7.863 L 107.567 7.968 L 107.567 9.960 L 107.668 10.065 L 110.000 10.065 L 110.203 10.274 L 110.203 18.661 L 110.304 18.766 L 110.304 18.976 L 110.507 19.081 L 112.839 19.081 L 113.041 18.976 L 113.041 18.766 L 113.143 18.661 L 113.143 10.379 L 113.447 10.065 L 115.576 10.065 L 115.779 9.855 L 115.779 7.653 L 115.475 7.444 L 113.346 7.444 L 113.143 7.234 L 113.143 2.935 L 112.940 2.621 Z M 80.194 2.097 L 79.788 2.411 L 79.687 2.411 L 79.281 2.831 L 79.078 3.250 L 79.078 4.298 L 79.281 4.508 L 79.484 4.927 L 80.194 5.452 L 81.207 5.452 L 81.309 5.347 L 81.512 5.347 L 81.714 5.242 L 81.816 5.032 L 82.120 4.823 L 82.323 4.403 L 82.323 3.984 L 82.424 3.879 L 82.323 3.145 L 82.120 2.726 L 81.714 2.306 L 81.309 2.097 Z M 51.198 2.097 L 50.387 2.831 L 50.184 3.250 L 50.184 4.298 L 50.387 4.718 L 50.995 5.347 L 51.198 5.347 L 51.300 5.452 L 52.313 5.452 L 52.415 5.347 L 52.618 5.347 L 53.429 4.403 L 53.429 3.145 L 53.327 2.935 L 52.415 2.097 Z M 96.313 1.677 L 96.111 1.887 L 96.111 18.661 L 96.212 18.871 L 96.516 19.081 L 98.747 19.081 L 99.051 18.871 L 99.152 18.661 L 99.152 11.742 L 99.253 11.637 L 99.253 11.427 L 99.456 11.008 L 99.862 10.484 L 100.876 9.960 L 101.889 9.960 L 102.903 10.484 L 103.309 10.903 L 103.410 11.323 L 103.714 11.742 L 103.714 18.661 L 103.816 18.766 L 103.816 18.976 L 104.018 19.081 L 106.350 19.081 L 106.553 18.976 L 106.553 18.766 L 106.654 18.661 L 106.654 10.903 L 106.553 10.798 L 106.553 10.274 L 106.249 9.750 L 106.249 9.540 L 106.046 9.121 L 105.336 8.282 L 105.235 8.282 L 104.931 7.968 L 104.829 7.968 L 104.323 7.548 L 103.613 7.444 L 103.207 7.234 L 101.382 7.234 L 101.281 7.339 L 101.078 7.339 L 100.673 7.548 L 100.369 7.548 L 99.862 7.968 L 99.456 8.177 L 99.253 8.177 L 99.152 8.073 L 99.152 1.992 L 98.949 1.677 Z M 65.899 1.677 L 63.161 1.677 L 62.959 1.992 L 62.959 8.073 L 62.857 8.177 L 62.452 8.073 L 61.742 7.548 L 61.539 7.548 L 61.438 7.444 L 61.032 7.444 L 60.728 7.234 L 58.802 7.234 L 58.700 7.339 L 58.498 7.339 L 58.092 7.548 L 57.687 7.548 L 57.484 7.758 L 56.977 7.968 L 56.673 8.282 L 56.571 8.282 L 55.456 9.435 L 54.949 10.484 L 54.747 10.694 L 54.645 11.427 L 54.544 11.532 L 54.544 11.742 L 54.341 12.161 L 54.341 14.258 L 54.442 14.363 L 54.442 14.677 L 54.645 15.097 L 54.747 15.726 L 55.253 16.774 L 55.558 17.089 L 55.558 17.194 L 56.571 18.242 L 56.876 18.347 L 57.382 18.766 L 57.889 18.871 L 58.498 19.185 L 59.207 19.185 L 59.309 19.290 L 60.221 19.290 L 60.323 19.185 L 61.032 19.185 L 61.134 19.081 L 61.336 19.081 L 61.843 18.766 L 62.046 18.766 L 62.350 18.452 L 62.756 18.347 L 62.857 18.242 L 63.060 18.452 L 63.161 18.871 L 63.465 19.081 L 65.696 19.081 L 66.000 18.871 L 66.000 1.782 Z M 60.018 9.960 L 61.032 10.065 L 62.046 10.589 L 62.857 11.532 L 62.857 11.742 L 63.161 12.266 L 63.161 12.790 L 63.263 12.895 L 63.263 13.629 L 63.161 13.734 L 63.161 14.258 L 62.756 15.097 L 62.350 15.516 L 62.350 15.621 L 61.336 16.355 L 60.525 16.355 L 60.424 16.460 L 60.221 16.355 L 59.309 16.355 L 58.599 15.935 L 57.889 15.202 L 57.889 14.992 L 57.687 14.782 L 57.484 14.363 L 57.382 12.895 L 57.484 12.790 L 57.484 12.056 L 57.687 11.637 L 57.889 11.427 L 57.889 11.323 L 58.700 10.484 L 59.106 10.274 L 59.309 10.274 L 59.613 10.065 L 59.917 10.065 Z M 10.037 0.000 L 10.037 0.105 L 9.733 0.315 L 9.530 0.315 L 9.429 0.419 L 8.922 0.419 L 8.618 0.629 L 8.415 0.629 L 8.313 0.734 L 7.502 0.944 L 7.300 1.153 L 6.793 1.258 L 6.488 1.573 L 5.982 1.782 L 5.677 2.097 L 5.069 2.411 L 4.562 2.935 L 4.461 2.935 L 4.055 3.355 L 3.954 3.355 L 3.954 3.460 L 3.244 4.089 L 3.244 4.194 L 2.028 5.661 L 2.028 5.766 L 1.622 6.290 L 1.622 6.500 L 1.419 6.919 L 1.217 7.129 L 1.217 7.339 L 1.014 7.758 L 0.811 7.968 L 0.710 8.597 L 0.406 9.121 L 0.304 10.169 L 0.000 10.589 L 0.000 15.306 L 0.304 15.726 L 0.406 16.565 L 0.710 17.194 L 0.811 17.823 L 1.115 18.242 L 1.217 18.766 L 1.622 19.290 L 1.622 19.500 L 1.825 19.710 L 1.825 19.815 L 2.028 20.024 L 2.433 20.758 L 3.143 21.492 L 3.143 21.597 L 4.968 23.379 L 5.272 23.484 L 5.576 23.798 L 5.880 23.903 L 6.894 24.637 L 7.401 24.742 L 8.212 25.161 L 8.516 25.161 L 9.023 25.476 L 9.530 25.476 L 9.631 25.581 L 10.240 25.685 L 10.341 25.895 L 14.599 25.895 L 14.599 25.790 L 14.903 25.581 L 15.917 25.476 L 16.525 25.161 L 17.134 25.056 L 18.959 24.113 L 19.263 23.798 L 19.871 23.484 L 21.189 22.226 L 21.290 22.226 L 21.392 22.016 L 22.304 21.073 L 22.304 20.968 L 22.912 20.234 L 23.014 19.919 L 23.217 19.710 L 23.622 18.871 L 23.825 18.661 L 23.825 18.452 L 24.028 18.137 L 24.028 17.927 L 24.230 17.718 L 24.230 17.403 L 24.332 17.298 L 24.332 17.089 L 24.636 16.460 L 24.636 16.040 L 24.737 15.935 L 24.737 15.306 L 24.839 15.202 L 24.940 14.573 L 25.041 14.468 L 25.041 11.427 L 24.940 11.323 L 24.940 10.903 L 24.839 10.798 L 24.839 10.484 L 24.737 10.379 L 24.636 9.331 L 24.535 9.226 L 24.535 9.016 L 24.332 8.806 L 24.332 8.597 L 24.230 8.492 L 24.230 8.073 L 24.028 7.863 L 23.825 7.444 L 23.825 7.234 L 23.622 7.024 L 23.318 6.290 L 23.115 6.081 L 23.014 5.766 L 22.710 5.452 L 22.507 5.032 L 21.899 4.403 L 21.899 4.298 L 20.074 2.516 L 19.770 2.411 L 19.465 2.097 L 19.161 1.992 L 18.857 1.677 L 18.350 1.468 L 18.147 1.258 L 17.945 1.258 L 17.235 0.839 L 16.627 0.734 L 16.120 0.419 L 15.613 0.419 L 15.512 0.315 L 15.207 0.315 L 14.802 0.000 Z M 10.747 2.411 L 14.092 2.411 L 14.194 2.516 L 14.700 2.516 L 15.309 2.831 L 15.714 2.831 L 15.816 2.935 L 16.018 2.935 L 16.424 3.250 L 16.728 3.250 L 17.134 3.460 L 17.336 3.669 L 17.539 3.669 L 17.742 3.879 L 17.843 3.879 L 18.046 4.089 L 18.756 4.508 L 20.682 6.500 L 20.783 6.815 L 20.986 7.024 L 21.189 7.444 L 21.493 7.758 L 21.493 7.968 L 21.696 8.177 L 21.899 8.597 L 21.899 8.911 L 22.203 9.435 L 22.304 10.065 L 22.406 10.169 L 22.406 10.484 L 22.608 10.903 L 22.608 11.532 L 22.710 11.637 L 22.710 14.258 L 22.608 14.363 L 22.608 14.887 L 22.507 14.992 L 22.507 15.306 L 22.304 15.726 L 22.304 16.145 L 21.899 16.984 L 21.899 17.194 L 21.696 17.613 L 21.493 17.823 L 21.392 18.242 L 21.088 18.556 L 20.986 18.871 L 20.682 19.185 L 20.581 19.500 L 19.060 21.073 L 18.959 21.073 L 17.945 21.911 L 17.235 22.226 L 17.032 22.435 L 16.627 22.645 L 16.323 22.645 L 15.917 22.960 L 15.106 23.065 L 15.005 23.169 L 14.802 23.169 L 14.396 23.379 L 13.889 23.379 L 13.788 23.484 L 11.253 23.484 L 11.152 23.379 L 10.645 23.379 L 10.544 23.274 L 10.240 23.274 L 9.834 23.065 L 9.429 23.065 L 9.327 22.960 L 8.820 22.855 L 8.618 22.645 L 8.415 22.645 L 8.009 22.435 L 7.806 22.226 L 7.604 22.226 L 7.198 22.016 L 6.590 21.492 L 6.286 21.387 L 4.359 19.395 L 4.359 19.290 L 3.548 18.137 L 3.548 17.927 L 3.346 17.718 L 3.143 17.298 L 3.143 17.089 L 2.839 16.565 L 2.737 15.831 L 2.535 15.516 L 2.535 15.306 L 2.433 15.202 L 2.433 14.677 L 2.332 14.573 L 2.332 11.218 L 2.433 11.113 L 2.433 10.589 L 2.737 9.960 L 2.737 9.540 L 2.940 9.121 L 3.143 8.911 L 3.143 8.492 L 3.346 8.073 L 3.548 7.863 L 3.650 7.548 L 3.954 7.234 L 3.954 7.024 L 4.866 5.976 L 4.866 5.871 L 5.677 5.032 L 5.779 5.032 L 6.793 4.089 L 7.097 3.984 L 7.502 3.669 L 7.705 3.669 L 7.908 3.460 L 8.313 3.250 L 8.516 3.250 L 8.922 2.935 L 9.631 2.831 L 9.733 2.726 L 9.935 2.726 L 10.341 2.516 L 10.645 2.516 Z"/>
</svg>
